<?xml version="1.0" standalone="no"?>
<!DOCTYPE svg PUBLIC "-//W3C//DTD SVG 20010904//EN"
 "http://www.w3.org/TR/2001/REC-SVG-20010904/DTD/svg10.dtd">
<svg version="1.0" xmlns="http://www.w3.org/2000/svg"
 width="16.000000pt" height="16.000000pt" viewBox="0 0 16.000000 16.000000"
 preserveAspectRatio="xMidYMid meet">
<g transform="translate(0.000000,16.000000) scale(0.004571,-0.004571)"
fill="#000000" stroke="none">
<path d="M2768 3166 c-61 -22 -168 -96 -231 -161 -61 -61 -232 -284 -282 -365
-48 -78 -94 -120 -134 -120 -19 0 -102 -7 -185 -16 -115 -12 -221 -15 -446
-12 l-295 5 -260 76 c-403 117 -696 187 -784 187 -63 -1 -116 -32 -135 -80
-17 -44 -15 -81 10 -153 12 -34 238 -393 320 -509 l34 -47 -20 -46 c-11 -25
-26 -72 -34 -103 -21 -78 -46 -330 -46 -450 0 -122 35 -448 55 -519 52 -180
397 -388 763 -463 121 -24 212 -35 472 -56 253 -21 755 -24 879 -5 195 29 538
131 708 211 144 67 226 134 275 226 51 95 57 142 59 489 2 346 -3 396 -66 690
-32 149 -59 200 -157 298 -77 76 -78 79 -78 128 0 30 -15 98 -39 172 -21 67
-48 169 -61 227 -40 192 -123 350 -203 389 -50 24 -68 25 -119 7z m-120 -685
c-26 -42 38 -59 101 -27 37 20 45 20 38 2 -3 -7 1 -24 10 -36 15 -21 30 -22
78 -4 14 6 16 3 11 -14 -9 -27 12 -41 128 -86 110 -43 174 -84 232 -149 41
-46 81 -107 70 -107 -2 0 -19 14 -37 31 -75 70 -212 119 -334 119 -134 0 -324
-48 -375 -96 -23 -21 -27 -21 -45 -8 -31 24 -154 85 -215 106 -30 11 -87 22
-127 24 -71 3 -72 3 -101 -31 -21 -23 -34 -53 -42 -92 -6 -32 -18 -83 -26
-113 -8 -30 -20 -73 -25 -95 -14 -53 -5 -178 25 -323 13 -64 26 -156 29 -203
6 -114 26 -155 130 -261 66 -67 95 -106 126 -170 54 -107 58 -138 32 -212 -11
-33 -19 -62 -16 -64 7 -7 93 66 106 90 6 11 35 31 65 44 171 76 366 89 579 39
125 -28 169 -47 220 -90 l30 -26 -40 -35 c-114 -101 -583 -265 -840 -293 -308
-34 -910 -11 -1269 49 -202 34 -420 117 -569 218 l-58 39 34 22 c19 11 40 21
46 21 6 0 33 11 59 24 73 37 158 50 278 43 186 -12 331 -51 424 -116 70 -49
220 -97 220 -70 0 5 -14 37 -32 70 -65 126 -58 193 34 314 99 130 172 305 201
485 9 52 21 191 28 308 10 194 10 218 -6 258 -9 24 -18 69 -19 100 -3 69 -30
109 -73 110 -47 2 -186 -42 -275 -86 -43 -22 -86 -40 -94 -40 -8 0 -37 11 -64
25 -27 14 -78 32 -112 40 -85 20 -263 19 -342 -1 -83 -21 -217 -93 -299 -159
-37 -30 -67 -51 -67 -47 0 4 30 40 66 80 41 45 60 72 50 72 -28 0 -17 16 22
29 66 24 84 51 32 51 -16 0 -30 4 -30 9 0 10 59 26 133 36 52 8 60 24 22 45
-28 15 -35 36 -7 22 9 -5 38 -14 65 -21 43 -10 51 -9 100 15 28 15 84 38 122
51 69 25 73 25 411 23 256 -1 381 3 505 16 117 12 218 15 354 12 202 -5 235
-1 292 38 41 27 51 26 31 -5z m487 -1108 c-23 -153 -165 -282 -375 -339 -45
-13 -102 -18 -185 -19 -109 0 -125 2 -175 26 -31 14 -72 40 -91 57 -49 43 -97
136 -105 204 l-6 55 58 7 c33 4 73 9 89 12 30 5 30 5 30 -43 0 -104 77 -183
185 -191 51 -4 66 -1 105 22 78 46 122 143 97 215 l-11 30 52 4 c29 2 117 4
196 5 l143 2 -7 -47z m-2155 17 l78 0 -6 -45 c-12 -109 90 -225 198 -225 97 0
199 102 200 201 l0 35 88 -12 c48 -7 89 -13 91 -13 2 -1 0 -24 -3 -53 -15
-110 -93 -216 -191 -259 -95 -42 -261 -41 -401 2 -196 60 -320 181 -341 334
l-6 48 108 -6 c59 -4 143 -7 185 -7z"/>
<path d="M1753 1175 c-39 -17 -50 -48 -29 -80 14 -21 24 -25 66 -25 42 0 51
-4 69 -29 18 -25 27 -28 58 -26 21 2 39 9 41 15 9 26 36 40 76 40 78 0 103 66
38 103 -31 18 -36 18 -75 4 -75 -27 -95 -28 -154 -7 -32 11 -57 20 -58 20 0
-1 -14 -7 -32 -15z"/>
<path d="M1900 991 c0 -14 -10 -21 -37 -26 -62 -11 -131 -55 -194 -122 -81
-87 -77 -115 4 -32 37 37 89 77 123 94 81 41 181 42 267 2 49 -22 58 -24 55
-10 -4 22 -83 61 -140 69 -38 5 -48 11 -48 25 0 11 -7 19 -15 19 -8 0 -15 -8
-15 -19z"/>
</g>
</svg>
